<svg width="1200" height="1260" viewBox="0 0 1200 1260" fill="none" xmlns="http://www.w3.org/2000/svg">
<rect width="1200" height="1260" rx="64" fill="#E0F2FE"/>
<circle cx="960" cy="230" r="150" fill="#FDE68A"/>
<circle cx="250" cy="1030" r="190" fill="#99F6E4"/>
<rect x="144" y="140" width="912" height="960" rx="56" fill="white"/>
<path d="M596 278C689.336 278 769 351.928 769 450C769 533.103 710.904 602.9 633.473 622.606L677.916 804.667C689.901 853.764 652.698 901 601.846 901H590.154C539.302 901 502.099 853.764 514.084 804.667L558.527 622.606C481.096 602.9 423 533.103 423 450C423 351.928 502.664 278 596 278Z" fill="#0F766E"/>
<path d="M483 425C483 367.562 529.562 321 587 321H605C662.438 321 709 367.562 709 425C709 482.438 662.438 529 605 529H587C529.562 529 483 482.438 483 425Z" fill="#CCFBF1"/>
<circle cx="466" cy="453" r="36" fill="#14B8A6"/>
<circle cx="727" cy="453" r="36" fill="#14B8A6"/>
<rect x="322" y="840" width="548" height="82" rx="41" fill="#E2E8F0"/>
<rect x="360" y="870" width="470" height="22" rx="11" fill="#94A3B8"/>
</svg>
